<svg xmlns="http://www.w3.org/2000/svg" width="900" height="460" aria-label="Search Latency — ARM (GCP c4a-standard-8, Google Axion, 8 vCPUs) — Single-threaded" role="img" viewBox="0 0 900 460"><style>.title{font:700 20px -apple-system,BlinkMacSystemFont,&quot;Segoe UI&quot;,sans-serif;fill:#0f172a}.subtitle{font:400 12px -apple-system,BlinkMacSystemFont,&quot;Segoe UI&quot;,sans-serif;fill:#475569}.label,.panel{fill:#0f172a}.panel{font:700 14px -apple-system,BlinkMacSystemFont,&quot;Segoe UI&quot;,sans-serif}.label{font:600 12px -apple-system,BlinkMacSystemFont,&quot;Segoe UI&quot;,sans-serif}.secondary,.tick{font:400 11px -apple-system,BlinkMacSystemFont,&quot;Segoe UI&quot;,sans-serif;fill:#475569}.tick{fill:#64748b}.value,.value-accent{font:700 11px -apple-system,BlinkMacSystemFont,&quot;Segoe UI&quot;,sans-serif;fill:#0f172a}.value-accent{fill:#4338ca}.axis,.legend{font:600 12px -apple-system,BlinkMacSystemFont,&quot;Segoe UI&quot;,sans-serif;fill:#334155}.legend{fill:#0f172a}</style><rect width="100%" height="100%" fill="#fff"/><text x="84" y="32" class="title">Search Latency — ARM (GCP c4a-standard-8, Google Axion, 8 vCPUs) — Single-threaded</text><text x="84" y="52" class="subtitle">100K vectors, 1K queries, k=64, median of 5 runs</text><line x1="84" x2="868" y1="352" y2="352" stroke="#e5e7eb" stroke-width="1"/><text x="74" y="356" class="tick" text-anchor="end">0.0</text><line x1="84" x2="868" y1="298" y2="298" stroke="#e5e7eb" stroke-width="1"/><text x="74" y="302" class="tick" text-anchor="end">2.0</text><line x1="84" x2="868" y1="244" y2="244" stroke="#e5e7eb" stroke-width="1"/><text x="74" y="248" class="tick" text-anchor="end">4.0</text><line x1="84" x2="868" y1="190" y2="190" stroke="#e5e7eb" stroke-width="1"/><text x="74" y="194" class="tick" text-anchor="end">6.0</text><line x1="84" x2="868" y1="136" y2="136" stroke="#e5e7eb" stroke-width="1"/><text x="74" y="140" class="tick" text-anchor="end">8.0</text><line x1="84" x2="868" y1="82" y2="82" stroke="#e5e7eb" stroke-width="1"/><text x="74" y="86" class="tick" text-anchor="end">10.0</text><line x1="84" x2="868" y1="352" y2="352" stroke="#94a3b8" stroke-width="1.5"/><text x="84" y="68" class="panel">Single-threaded</text><rect width="44" height="42.3" x="135" y="309.7" fill="#635bff" stroke="#4338ca" stroke-width="1.5" rx="6"/><rect width="44" height="54.7" x="185" y="297.3" fill="#9aa7b6" rx="6"/><text x="157" y="303.7" class="value-accent" text-anchor="middle">1.57</text><text x="207" y="291.3" class="value" text-anchor="middle">2.03</text><text x="182" y="374" class="label" text-anchor="middle">d=1536</text><text x="182" y="389" class="secondary" text-anchor="middle">2-bit</text><rect width="44" height="29.6" x="331" y="322.4" fill="#635bff" stroke="#4338ca" stroke-width="1.5" rx="6"/><rect width="44" height="108.6" x="381" y="243.4" fill="#9aa7b6" rx="6"/><text x="353" y="316.4" class="value-accent" text-anchor="middle">1.09</text><text x="403" y="237.4" class="value" text-anchor="middle">4.02</text><text x="378" y="374" class="label" text-anchor="middle">d=1536</text><text x="378" y="389" class="secondary" text-anchor="middle">4-bit</text><rect width="44" height="85.8" x="527" y="266.2" fill="#635bff" stroke="#4338ca" stroke-width="1.5" rx="6"/><rect width="44" height="106.5" x="577" y="245.5" fill="#9aa7b6" rx="6"/><text x="549" y="260.2" class="value-accent" text-anchor="middle">3.18</text><text x="599" y="239.5" class="value" text-anchor="middle">3.95</text><text x="574" y="374" class="label" text-anchor="middle">d=3072</text><text x="574" y="389" class="secondary" text-anchor="middle">2-bit</text><rect width="44" height="63.8" x="723" y="288.2" fill="#635bff" stroke="#4338ca" stroke-width="1.5" rx="6"/><rect width="44" height="214.6" x="773" y="137.4" fill="#9aa7b6" rx="6"/><text x="745" y="282.2" class="value-accent" text-anchor="middle">2.36</text><text x="795" y="131.4" class="value" text-anchor="middle">7.95</text><text x="770" y="374" class="label" text-anchor="middle">d=3072</text><text x="770" y="389" class="secondary" text-anchor="middle">4-bit</text><text x="26" y="217" class="axis" transform="rotate(-90, 26, 217.0)">ms / query</text><rect width="14" height="14" x="84" y="424" fill="#635bff" stroke="#4338ca" stroke-width="1.5" rx="3"/><text x="106" y="435" class="legend" style="fill:#4338ca">TurboQuant</text><rect width="14" height="14" x="224" y="424" fill="#9aa7b6" rx="3"/><text x="246" y="435" class="legend">FAISS</text></svg>