<svg xmlns="http://www.w3.org/2000/svg" width="900" height="460" aria-label="Recall — GloVe d=200" role="img" viewBox="0 0 900 460"><style>.title{font:700 20px -apple-system,BlinkMacSystemFont,&quot;Segoe UI&quot;,sans-serif;fill:#0f172a}.subtitle{font:400 12px -apple-system,BlinkMacSystemFont,&quot;Segoe UI&quot;,sans-serif;fill:#475569}.label,.panel{fill:#0f172a}.panel{font:700 14px -apple-system,BlinkMacSystemFont,&quot;Segoe UI&quot;,sans-serif}.label{font:600 12px -apple-system,BlinkMacSystemFont,&quot;Segoe UI&quot;,sans-serif}.tick{font:400 11px -apple-system,BlinkMacSystemFont,&quot;Segoe UI&quot;,sans-serif;fill:#64748b}.axis,.legend{font:600 12px -apple-system,BlinkMacSystemFont,&quot;Segoe UI&quot;,sans-serif;fill:#334155}.legend{fill:#0f172a}</style><rect width="100%" height="100%" fill="#fff"/><text x="84" y="32" class="title">Recall — GloVe d=200</text><text x="84" y="52" class="subtitle">100K vectors, k=64 search. recall@1@k measures how often the true top-1 result appears in the top-k returned.</text><line x1="84" x2="868" y1="352" y2="352" stroke="#e5e7eb" stroke-width="1"/><text x="74" y="356" class="tick" text-anchor="end">0.40</text><line x1="84" x2="868" y1="298" y2="298" stroke="#e5e7eb" stroke-width="1"/><text x="74" y="302" class="tick" text-anchor="end">0.52</text><line x1="84" x2="868" y1="244" y2="244" stroke="#e5e7eb" stroke-width="1"/><text x="74" y="248" class="tick" text-anchor="end">0.64</text><line x1="84" x2="868" y1="190" y2="190" stroke="#e5e7eb" stroke-width="1"/><text x="74" y="194" class="tick" text-anchor="end">0.76</text><line x1="84" x2="868" y1="136" y2="136" stroke="#e5e7eb" stroke-width="1"/><text x="74" y="140" class="tick" text-anchor="end">0.88</text><line x1="84" x2="868" y1="82" y2="82" stroke="#e5e7eb" stroke-width="1"/><text x="74" y="86" class="tick" text-anchor="end">1.00</text><line x1="84" x2="868" y1="352" y2="352" stroke="#94a3b8" stroke-width="1.5"/><text x="84" y="68" class="panel">GloVe d=200</text><text x="84" y="372" class="label" text-anchor="middle">1</text><text x="214.7" y="372" class="label" text-anchor="middle">2</text><text x="345.3" y="372" class="label" text-anchor="middle">4</text><text x="476" y="372" class="label" text-anchor="middle">8</text><text x="606.7" y="372" class="label" text-anchor="middle">16</text><text x="737.3" y="372" class="label" text-anchor="middle">32</text><text x="868" y="372" class="label" text-anchor="middle">64</text><path fill="none" stroke="#9aa7b6" stroke-dasharray="6 4" stroke-width="2.25" d="M 84.0,278.7 L 214.7,209.7 L 345.3,153.6 L 476.0,117.6 L 606.7,97.6 L 737.3,88.3 L 868.0,85.1"/><circle cx="84" cy="278.7" r="3.5" fill="#9aa7b6"/><circle cx="214.7" cy="209.7" r="3.5" fill="#9aa7b6"/><circle cx="345.3" cy="153.6" r="3.5" fill="#9aa7b6"/><circle cx="476" cy="117.6" r="3.5" fill="#9aa7b6"/><circle cx="606.7" cy="97.6" r="3.5" fill="#9aa7b6"/><circle cx="737.3" cy="88.3" r="3.5" fill="#9aa7b6"/><circle cx="868" cy="85.1" r="3.5" fill="#9aa7b6"/><path fill="none" stroke="#64748b" stroke-dasharray="6 4" stroke-width="2.25" d="M 84.0,155.2 L 214.7,105.9 L 345.3,88.1 L 476.0,84.9 L 606.7,84.2 L 737.3,84.2 L 868.0,84.2"/><circle cx="84" cy="155.2" r="3.5" fill="#64748b"/><circle cx="214.7" cy="105.9" r="3.5" fill="#64748b"/><circle cx="345.3" cy="88.1" r="3.5" fill="#64748b"/><circle cx="476" cy="84.9" r="3.5" fill="#64748b"/><circle cx="606.7" cy="84.2" r="3.5" fill="#64748b"/><circle cx="737.3" cy="84.2" r="3.5" fill="#64748b"/><circle cx="868" cy="84.2" r="3.5" fill="#64748b"/><path fill="none" stroke="#635bff" stroke-width="2.25" d="M 84.0,275.1 L 214.7,208.5 L 345.3,153.7 L 476.0,118.8 L 606.7,99.8 L 737.3,88.7 L 868.0,85.4"/><circle cx="84" cy="275.1" r="3.5" fill="#635bff"/><circle cx="214.7" cy="208.5" r="3.5" fill="#635bff"/><circle cx="345.3" cy="153.7" r="3.5" fill="#635bff"/><circle cx="476" cy="118.8" r="3.5" fill="#635bff"/><circle cx="606.7" cy="99.8" r="3.5" fill="#635bff"/><circle cx="737.3" cy="88.7" r="3.5" fill="#635bff"/><circle cx="868" cy="85.4" r="3.5" fill="#635bff"/><path fill="none" stroke="#0f766e" stroke-width="2.25" d="M 84.0,146.7 L 214.7,101.0 L 345.3,86.6 L 476.0,84.5 L 606.7,84.2 L 737.3,84.2 L 868.0,84.2"/><circle cx="84" cy="146.7" r="3.5" fill="#0f766e"/><circle cx="214.7" cy="101" r="3.5" fill="#0f766e"/><circle cx="345.3" cy="86.6" r="3.5" fill="#0f766e"/><circle cx="476" cy="84.5" r="3.5" fill="#0f766e"/><circle cx="606.7" cy="84.2" r="3.5" fill="#0f766e"/><circle cx="737.3" cy="84.2" r="3.5" fill="#0f766e"/><circle cx="868" cy="84.2" r="3.5" fill="#0f766e"/><text x="22" y="217" class="axis" transform="rotate(-90, 22, 217.0)">recall@1@k</text><text x="476" y="400" class="axis" text-anchor="middle">k</text><line x1="84" x2="108" y1="432" y2="432" stroke="#635bff" stroke-width="2.25"/><circle cx="96" cy="432" r="3.5" fill="#635bff"/><text x="116" y="435" class="legend">TQ+ 2-bit</text><line x1="224" x2="248" y1="432" y2="432" stroke="#0f766e" stroke-width="2.25"/><circle cx="236" cy="432" r="3.5" fill="#0f766e"/><text x="256" y="435" class="legend">TQ+ 4-bit</text><line x1="364" x2="388" y1="432" y2="432" stroke="#9aa7b6" stroke-dasharray="6 4" stroke-width="2.25"/><circle cx="376" cy="432" r="3.5" fill="#9aa7b6"/><text x="396" y="435" class="legend">FAISS 2-bit</text><line x1="504" x2="528" y1="432" y2="432" stroke="#64748b" stroke-dasharray="6 4" stroke-width="2.25"/><circle cx="516" cy="432" r="3.5" fill="#64748b"/><text x="536" y="435" class="legend">FAISS 4-bit</text></svg>