<svg xmlns="http://www.w3.org/2000/svg" width="900" height="460" aria-label="Recall — d=3072" role="img" viewBox="0 0 900 460"><style>.title{font:700 20px -apple-system,BlinkMacSystemFont,&quot;Segoe UI&quot;,sans-serif;fill:#0f172a}.subtitle{font:400 12px -apple-system,BlinkMacSystemFont,&quot;Segoe UI&quot;,sans-serif;fill:#475569}.label,.panel{fill:#0f172a}.panel{font:700 14px -apple-system,BlinkMacSystemFont,&quot;Segoe UI&quot;,sans-serif}.label{font:600 12px -apple-system,BlinkMacSystemFont,&quot;Segoe UI&quot;,sans-serif}.tick{font:400 11px -apple-system,BlinkMacSystemFont,&quot;Segoe UI&quot;,sans-serif;fill:#64748b}.axis,.legend{font:600 12px -apple-system,BlinkMacSystemFont,&quot;Segoe UI&quot;,sans-serif;fill:#334155}.legend{fill:#0f172a}</style><rect width="100%" height="100%" fill="#fff"/><text x="84" y="32" class="title">Recall — d=3072</text><text x="84" y="52" class="subtitle">100K vectors, k=64 search. recall@1@k measures how often the true top-1 result appears in the top-k returned.</text><line x1="84" x2="868" y1="352" y2="352" stroke="#e5e7eb" stroke-width="1"/><text x="74" y="356" class="tick" text-anchor="end">0.85</text><line x1="84" x2="868" y1="298" y2="298" stroke="#e5e7eb" stroke-width="1"/><text x="74" y="302" class="tick" text-anchor="end">0.88</text><line x1="84" x2="868" y1="244" y2="244" stroke="#e5e7eb" stroke-width="1"/><text x="74" y="248" class="tick" text-anchor="end">0.91</text><line x1="84" x2="868" y1="190" y2="190" stroke="#e5e7eb" stroke-width="1"/><text x="74" y="194" class="tick" text-anchor="end">0.94</text><line x1="84" x2="868" y1="136" y2="136" stroke="#e5e7eb" stroke-width="1"/><text x="74" y="140" class="tick" text-anchor="end">0.97</text><line x1="84" x2="868" y1="82" y2="82" stroke="#e5e7eb" stroke-width="1"/><text x="74" y="86" class="tick" text-anchor="end">1.00</text><line x1="84" x2="868" y1="352" y2="352" stroke="#94a3b8" stroke-width="1.5"/><text x="84" y="68" class="panel">d=3072</text><text x="84" y="372" class="label" text-anchor="middle">1</text><text x="214.7" y="372" class="label" text-anchor="middle">2</text><text x="345.3" y="372" class="label" text-anchor="middle">4</text><text x="476" y="372" class="label" text-anchor="middle">8</text><text x="606.7" y="372" class="label" text-anchor="middle">16</text><text x="737.3" y="372" class="label" text-anchor="middle">32</text><text x="868" y="372" class="label" text-anchor="middle">64</text><path fill="none" stroke="#9aa7b6" stroke-dasharray="6 4" stroke-width="2.25" d="M 84.0,244.0 L 214.7,115.1 L 345.3,90.7 L 476.0,90.7 L 606.7,90.7 L 737.3,90.7 L 868.0,90.7"/><circle cx="84" cy="244" r="3.5" fill="#9aa7b6"/><circle cx="214.7" cy="115.1" r="3.5" fill="#9aa7b6"/><circle cx="345.3" cy="90.7" r="3.5" fill="#9aa7b6"/><circle cx="476" cy="90.7" r="3.5" fill="#9aa7b6"/><circle cx="606.7" cy="90.7" r="3.5" fill="#9aa7b6"/><circle cx="737.3" cy="90.7" r="3.5" fill="#9aa7b6"/><circle cx="868" cy="90.7" r="3.5" fill="#9aa7b6"/><path fill="none" stroke="#64748b" stroke-dasharray="6 4" stroke-width="2.25" d="M 84.0,139.5 L 214.7,94.2 L 345.3,90.7 L 476.0,90.7 L 606.7,90.7 L 737.3,90.7 L 868.0,90.7"/><circle cx="84" cy="139.5" r="3.5" fill="#64748b"/><circle cx="214.7" cy="94.2" r="3.5" fill="#64748b"/><circle cx="345.3" cy="90.7" r="3.5" fill="#64748b"/><circle cx="476" cy="90.7" r="3.5" fill="#64748b"/><circle cx="606.7" cy="90.7" r="3.5" fill="#64748b"/><circle cx="737.3" cy="90.7" r="3.5" fill="#64748b"/><circle cx="868" cy="90.7" r="3.5" fill="#64748b"/><path fill="none" stroke="#635bff" stroke-width="2.25" d="M 84.0,210.9 L 214.7,104.6 L 345.3,94.2 L 476.0,90.7 L 606.7,90.7 L 737.3,90.7 L 868.0,90.7"/><circle cx="84" cy="210.9" r="3.5" fill="#635bff"/><circle cx="214.7" cy="104.6" r="3.5" fill="#635bff"/><circle cx="345.3" cy="94.2" r="3.5" fill="#635bff"/><circle cx="476" cy="90.7" r="3.5" fill="#635bff"/><circle cx="606.7" cy="90.7" r="3.5" fill="#635bff"/><circle cx="737.3" cy="90.7" r="3.5" fill="#635bff"/><circle cx="868" cy="90.7" r="3.5" fill="#635bff"/><path fill="none" stroke="#0f766e" stroke-width="2.25" d="M 84.0,123.8 L 214.7,90.7 L 345.3,90.7 L 476.0,90.7 L 606.7,90.7 L 737.3,90.7 L 868.0,90.7"/><circle cx="84" cy="123.8" r="3.5" fill="#0f766e"/><circle cx="214.7" cy="90.7" r="3.5" fill="#0f766e"/><circle cx="345.3" cy="90.7" r="3.5" fill="#0f766e"/><circle cx="476" cy="90.7" r="3.5" fill="#0f766e"/><circle cx="606.7" cy="90.7" r="3.5" fill="#0f766e"/><circle cx="737.3" cy="90.7" r="3.5" fill="#0f766e"/><circle cx="868" cy="90.7" r="3.5" fill="#0f766e"/><text x="22" y="217" class="axis" transform="rotate(-90, 22, 217.0)">recall@1@k</text><text x="476" y="400" class="axis" text-anchor="middle">k</text><line x1="84" x2="108" y1="432" y2="432" stroke="#635bff" stroke-width="2.25"/><circle cx="96" cy="432" r="3.5" fill="#635bff"/><text x="116" y="435" class="legend">TQ+ 2-bit</text><line x1="224" x2="248" y1="432" y2="432" stroke="#0f766e" stroke-width="2.25"/><circle cx="236" cy="432" r="3.5" fill="#0f766e"/><text x="256" y="435" class="legend">TQ+ 4-bit</text><line x1="364" x2="388" y1="432" y2="432" stroke="#9aa7b6" stroke-dasharray="6 4" stroke-width="2.25"/><circle cx="376" cy="432" r="3.5" fill="#9aa7b6"/><text x="396" y="435" class="legend">FAISS 2-bit</text><line x1="504" x2="528" y1="432" y2="432" stroke="#64748b" stroke-dasharray="6 4" stroke-width="2.25"/><circle cx="516" cy="432" r="3.5" fill="#64748b"/><text x="536" y="435" class="legend">FAISS 4-bit</text></svg>